<svg width="17" height="22" viewBox="0 0 17 22" fill="none" xmlns="http://www.w3.org/2000/svg">
<path d="M14.7717 7.94137L9.59757 18.2117C8.60324 20.1853 6.19929 20.9786 4.22561 19.9843C2.25193 18.9899 1.4587 16.586 2.45302 14.6123L8.07703 3.44894C8.69792 2.2165 10.2021 1.72018 11.4345 2.34107C12.6669 2.96196 13.1633 4.46611 12.5424 5.69854L7.8182 15.0758C7.57075 15.5669 6.9664 15.7664 6.47521 15.5189C5.98403 15.2715 5.78461 14.6671 6.03207 14.1759L10.3063 5.69177L8.96671 5.01689L4.69246 13.501C4.07157 14.7335 4.5679 16.2376 5.80033 16.8585C7.03277 17.4794 8.53692 16.9831 9.15781 15.7506L13.882 6.37342C14.8763 4.39974 14.0831 1.99579 12.1094 1.00147C10.1357 0.00714034 7.73175 0.800375 6.73743 2.77406L1.11342 13.9374C-0.254342 16.6523 0.835802 19.9561 3.55073 21.3239C6.26566 22.6916 9.56941 21.6015 10.9372 18.8865L16.1113 8.61625L14.7717 7.94137Z" fill="#0045A9"/>
</svg>
