<svg width="31" height="31" viewBox="0 0 31 31" fill="none" xmlns="http://www.w3.org/2000/svg">
<path d="M15.4667 18.6606L4.28797 29.8393C3.86972 30.2575 3.3374 30.4667 2.69101 30.4667C2.04462 30.4667 1.5123 30.2575 1.09405 29.8393C0.675799 29.421 0.466675 28.8887 0.466675 28.2423C0.466675 27.596 0.675799 27.0636 1.09405 26.6454L12.2728 15.4667L1.09405 4.28797C0.675799 3.86972 0.466675 3.3374 0.466675 2.69101C0.466675 2.04462 0.675799 1.5123 1.09405 1.09405C1.5123 0.675799 2.04462 0.466675 2.69101 0.466675C3.3374 0.466675 3.86972 0.675799 4.28797 1.09405L15.4667 12.2728L26.6454 1.09405C27.0636 0.675799 27.596 0.466675 28.2423 0.466675C28.8887 0.466675 29.421 0.675799 29.8393 1.09405C30.2575 1.5123 30.4667 2.04462 30.4667 2.69101C30.4667 3.3374 30.2575 3.86972 29.8393 4.28797L18.6606 15.4667L29.8393 26.6454C30.2575 27.0636 30.4667 27.596 30.4667 28.2423C30.4667 28.8887 30.2575 29.421 29.8393 29.8393C29.421 30.2575 28.8887 30.4667 28.2423 30.4667C27.596 30.4667 27.0636 30.2575 26.6454 29.8393L15.4667 18.6606Z" fill="#0045A9"/>
</svg>
